<?xml version="1.0" encoding="UTF-8" standalone="no"?>
<!DOCTYPE svg PUBLIC "-//W3C//DTD SVG 1.1//EN" "http://www.w3.org/Graphics/SVG/1.1/DTD/svg11.dtd">
<svg version="1.1" xmlns="http://www.w3.org/2000/svg" xmlns:xlink="http://www.w3.org/1999/xlink" preserveAspectRatio="xMidYMid meet" viewBox="0.13432162720300767 -2.5 299.23135666589485 128.5000089279348" width="293.73" height="123"><defs><path d="M296.37 18.91C296.37 18.91 296.37 18.91 296.37 18.91C296.37 73.32 296.37 103.55 296.37 109.6C296.37 109.6 296.37 109.6 296.37 109.6C120.13 109.6 22.22 109.6 2.63 109.6C2.63 109.6 2.63 109.6 2.63 109.6C2.63 55.18 2.63 24.95 2.63 18.91C2.63 18.91 2.63 18.91 2.63 18.91C178.87 18.91 276.78 18.91 296.37 18.91Z" id="d1KDwWiIQg"></path><path d="M105.07 0C105.07 0 105.07 0 105.07 0C105.07 15.86 105.07 24.67 105.07 26.44C105.07 26.44 105.07 26.44 105.07 26.44C103.75 26.44 103.02 26.44 102.87 26.44C102.87 26.44 102.87 26.44 102.87 26.44C102.87 10.57 102.87 1.76 102.87 0C102.87 0 102.87 0 102.87 0C104.19 0 104.93 0 105.07 0Z" id="cOttSgH8A"></path><path d="M53.3 0.73C53.3 0.73 53.3 0.73 53.3 0.73C53.3 12.63 53.3 19.24 53.3 20.56C53.3 20.56 53.3 20.56 53.3 20.56C53.08 20.56 52.96 20.56 52.94 20.56C52.94 20.56 52.94 20.56 52.94 20.56C52.94 8.67 52.94 2.06 52.94 0.73C52.94 0.73 52.94 0.73 52.94 0.73C53.16 0.73 53.28 0.73 53.3 0.73Z" id="b2dfsvX4Pv"></path><path d="M81.21 78.02C81.21 102.78 72.96 122.88 62.76 123C52.55 123.12 44.22 103.21 44.12 78.46C44.03 53.7 52.19 33.41 62.4 33.05C72.6 32.69 81.01 52.4 81.2 77.15C79.97 77.21 73.79 77.5 62.67 78.02C72.55 78.02 78.74 78.02 81.21 78.02Z" id="aqcO91KGc"></path><path d="M79.77 64.25C79.77 81.03 66.29 94.63 49.65 94.63C33.02 94.63 19.54 81.03 19.54 64.25C19.54 47.48 33.02 33.88 49.65 33.88C66.29 33.88 79.77 47.48 79.77 64.25Z" id="a27Dw7RHPu"></path><path d="M276.91 64.25C276.91 81.03 263.42 94.63 246.79 94.63C230.16 94.63 216.67 81.03 216.67 64.25C216.67 47.48 230.16 33.88 246.79 33.88C263.42 33.88 276.91 47.48 276.91 64.25Z" id="i418fucrs"></path><path d="M203.47 43.94C203.47 43.94 203.47 43.94 203.47 43.94C203.47 60.9 203.47 70.33 203.47 72.21C203.47 72.21 203.47 72.21 203.47 72.21C136.5 72.21 99.3 72.21 91.86 72.21C91.86 72.21 91.86 72.21 91.86 72.21C91.86 55.25 91.86 45.83 91.86 43.94C91.86 43.94 91.86 43.94 91.86 43.94C158.83 43.94 196.03 43.94 203.47 43.94Z" id="h24pb0szax"></path><path d="M203.11 75.09C203.11 75.09 203.11 75.09 203.11 75.09C203.11 79.71 203.11 82.28 203.11 82.8C203.11 82.8 203.11 82.8 203.11 82.8C136.14 82.8 98.93 82.8 91.49 82.8C91.49 82.8 91.49 82.8 91.49 82.8C91.49 78.17 91.49 75.6 91.49 75.09C91.49 75.09 91.49 75.09 91.49 75.09C158.46 75.09 195.66 75.09 203.11 75.09Z" id="c1DzrFXyxb"></path><path d="M55.18 110.35C55.18 110.35 55.18 110.35 55.18 110.35C55.18 117.94 55.18 122.16 55.18 123C55.18 123 55.18 123 55.18 123C34.39 123 22.85 123 20.54 123C20.54 123 20.54 123 20.54 123C20.54 115.41 20.54 111.19 20.54 110.35C20.54 110.35 20.54 110.35 20.54 110.35C41.32 110.35 52.87 110.35 55.18 110.35Z" id="a3HPOusetU"></path><path d="M277.91 110.35C277.91 110.35 277.91 110.35 277.91 110.35C277.91 117.94 277.91 122.16 277.91 123C277.91 123 277.91 123 277.91 123C257.12 123 245.57 123 243.26 123C243.26 123 243.26 123 243.26 123C243.26 115.41 243.26 111.19 243.26 110.35C243.26 110.35 243.26 110.35 243.26 110.35C264.05 110.35 275.6 110.35 277.91 110.35Z" id="a1ZGMGv2WH"></path></defs><g><g><use xlink:href="#d1KDwWiIQg" opacity="1" fill="#000000" fill-opacity="0"></use><g><use xlink:href="#d1KDwWiIQg" opacity="1" fill-opacity="0" stroke="#000000" stroke-width="5" stroke-opacity="1"></use></g></g><g><use xlink:href="#cOttSgH8A" opacity="1" fill="#000000" fill-opacity="0"></use><g><use xlink:href="#cOttSgH8A" opacity="1" fill-opacity="0" stroke="#000000" stroke-width="5" stroke-opacity="0"></use></g></g><g><use xlink:href="#b2dfsvX4Pv" opacity="1" fill="#000000" fill-opacity="0"></use><g><use xlink:href="#b2dfsvX4Pv" opacity="1" fill-opacity="0" stroke="#000000" stroke-width="5" stroke-opacity="0"></use></g></g><g><use xlink:href="#aqcO91KGc" opacity="1" fill="#000000" fill-opacity="0"></use><g><use xlink:href="#aqcO91KGc" opacity="1" fill-opacity="0" stroke="#000000" stroke-width="5" stroke-opacity="0"></use></g></g><g><use xlink:href="#a27Dw7RHPu" opacity="1" fill="#000000" fill-opacity="1"></use><g><use xlink:href="#a27Dw7RHPu" opacity="1" fill-opacity="0" stroke="#000000" stroke-width="5" stroke-opacity="0"></use></g></g><g><use xlink:href="#i418fucrs" opacity="1" fill="#000000" fill-opacity="1"></use><g><use xlink:href="#i418fucrs" opacity="1" fill-opacity="0" stroke="#000000" stroke-width="5" stroke-opacity="0"></use></g></g><g><use xlink:href="#h24pb0szax" opacity="1" fill="#000000" fill-opacity="1"></use><g><use xlink:href="#h24pb0szax" opacity="1" fill-opacity="0" stroke="#000000" stroke-width="5" stroke-opacity="0"></use></g></g><g><use xlink:href="#c1DzrFXyxb" opacity="1" fill="#000000" fill-opacity="1"></use><g><use xlink:href="#c1DzrFXyxb" opacity="1" fill-opacity="0" stroke="#000000" stroke-width="5" stroke-opacity="0"></use></g></g><g><use xlink:href="#a3HPOusetU" opacity="1" fill="#000000" fill-opacity="0"></use><g><use xlink:href="#a3HPOusetU" opacity="1" fill-opacity="0" stroke="#000000" stroke-width="5" stroke-opacity="1"></use></g></g><g><use xlink:href="#a1ZGMGv2WH" opacity="1" fill="#000000" fill-opacity="0"></use><g><use xlink:href="#a1ZGMGv2WH" opacity="1" fill-opacity="0" stroke="#000000" stroke-width="5" stroke-opacity="1"></use></g></g></g></svg>