<?xml version="1.0" encoding="UTF-8" standalone="no"?>
<!DOCTYPE svg PUBLIC "-//W3C//DTD SVG 1.1//EN" "http://www.w3.org/Graphics/SVG/1.1/DTD/svg11.dtd">
<svg version="1.1" xmlns="http://www.w3.org/2000/svg" xmlns:xlink="http://www.w3.org/1999/xlink" preserveAspectRatio="xMidYMid meet" viewBox="-1 -0.8406701349728962 85.99995465628622 58.25498114260075" width="82" height="54.25"><defs><path d="M31.95 23.69C32.23 24.99 34.51 35.34 34.8 36.64C56.71 40.62 69.71 37.34 77.13 29.55C82.62 23.78 83.7 16.31 79.18 10.6C74.41 4.55 63.83 0.16 50.46 0.16C31.35 0.16 17.73 5.7 10.17 26.48C9.49 28.34 6.1 37.65 0 54.41L17.79 54.41C23.86 37.46 27.23 28.04 27.91 26.16C32.06 14.54 40.78 12.61 50.46 12.61C60.62 12.61 65.52 16.79 64.2 20.48C62.79 24.47 53.86 28.65 31.95 23.69Z" id="b19IJjgVUQ"></path></defs><g><g><use xlink:href="#b19IJjgVUQ" opacity="1" fill="#000000" fill-opacity="1"></use><g><use xlink:href="#b19IJjgVUQ" opacity="1" fill-opacity="0" stroke="#000000" stroke-width="1" stroke-opacity="0"></use></g></g></g></svg>